<?xml version="1.0" encoding="utf-8"?>
<svg xmlns="http://www.w3.org/2000/svg" viewBox="102.0001 87 95.9999 96" width="95.9999px" height="96px"><g filter="u(#filter0_d_«rgi»)" transform="matrix(1, 0, 0, 1, 0.00028096558526158333, 15.000001907348633)" id="object-0"><path d="M148.982 109.68C143.189 109.68 138.478 114.396 138.478 120.192C138.478 125.988 143.19 130.704 148.982 130.704C154.773 130.704 159.485 125.988 159.485 120.192C159.485 114.396 154.773 109.68 148.982 109.68Z" style="fill: rgb(17, 154, 149);"/><path d="M115.181 132.36C115.181 128.721 112.224 125.76 108.591 125.76C104.957 125.76 102 128.721 102 132.36C102 135.999 104.957 138.96 108.591 138.96C112.224 138.96 115.181 135.999 115.181 132.36Z" style="fill: rgb(17, 154, 149);"/><path d="M187.504 120C188.572 118.946 189.575 117.889 190.502 116.833C197.702 108.641 199.805 101.242 196.425 96C193.046 90.7581 184.839 88.6897 173.315 90.1765C166.166 91.0986 158.158 93.3142 150.004 96.5742C145.707 94.8552 141.45 93.4285 137.338 92.3276C137.747 91.2107 138.182 90.1326 138.644 89.0984C141.163 83.4595 144.32 79.6047 147.448 78.2073C148.073 75.7983 149.536 73.6743 151.548 72.0959C151.035 72.033 150.518 72 149.999 72C143.239 72 137.135 77.3306 132.811 87.0095C132.254 88.2576 131.733 89.5635 131.247 90.9185C129.694 90.6174 128.17 90.3684 126.684 90.1765C115.162 88.6904 106.954 90.7581 103.574 96C100.194 101.242 102.297 108.641 109.496 116.833C113.964 121.916 120.107 127.02 127.339 131.713C127.826 135.904 128.574 139.917 129.565 143.654C128.28 143.896 127.02 144.097 125.788 144.256C119.083 145.121 113.782 144.603 110.864 142.881C109.671 143.206 108.404 143.383 107.093 143.383C105.624 143.383 104.213 143.16 102.895 142.756C103.091 143.183 103.316 143.599 103.574 144C106.239 148.134 111.905 150.294 119.833 150.294C121.959 150.294 124.248 150.138 126.685 149.823C128.17 149.632 129.694 149.383 131.248 149.082C131.733 150.437 132.254 151.743 132.812 152.99C137.135 162.669 143.24 168 149.999 168C156.758 168 162.863 162.669 167.187 152.99C169.869 146.985 171.735 139.668 172.659 131.714C176.469 129.242 179.976 126.656 183.095 124.018C183.972 124.894 184.797 125.771 185.566 126.645C189.769 131.428 191.918 135.812 191.695 138.938C193.637 140.571 195.019 142.73 195.553 145.16C195.872 144.792 196.165 144.406 196.425 144C199.806 138.758 197.702 131.36 190.503 123.167C189.575 122.111 188.572 121.054 187.504 120ZM174.211 95.7444C182.764 94.6406 189.035 95.7876 190.985 98.8125C192.936 101.837 190.91 107.273 185.566 113.355C184.797 114.229 183.972 115.107 183.095 115.982C177.158 110.963 169.819 106.126 161.663 101.911C160.284 101.199 158.899 100.514 157.513 99.8555C163.383 97.8179 169.054 96.4094 174.211 95.7444ZM114.434 113.355C109.09 107.274 107.065 101.837 109.015 98.8125C110.966 95.7876 117.235 94.6406 125.789 95.7444C127.02 95.9026 128.281 96.104 129.566 96.3457C127.679 103.459 126.671 111.568 126.671 120C126.671 121.425 126.701 122.841 126.759 124.245C121.853 120.713 117.655 117.021 114.434 113.355ZM132.953 120C132.953 112.025 133.891 104.394 135.647 97.7424C142.959 99.7068 150.809 102.795 158.522 106.783C166.236 110.769 173.148 115.312 178.704 120C173.148 124.688 166.236 129.231 158.522 133.217C150.809 137.205 142.959 140.293 135.647 142.258C133.891 135.606 132.953 127.975 132.953 120ZM161.354 150.902C158.144 158.086 153.9 162.375 149.999 162.375C146.098 162.375 141.853 158.086 138.644 150.902C138.182 149.867 137.747 148.789 137.338 147.672C145.161 145.578 153.508 142.304 161.662 138.089C163.042 137.376 164.397 136.644 165.727 135.898C164.763 141.468 163.289 146.569 161.354 150.902Z" style="fill: rgb(17, 154, 149);"/><path d="M184.431 141.6C180.796 141.6 177.84 144.561 177.84 148.2C177.84 151.839 180.796 154.8 184.431 154.8C188.064 154.8 191.021 151.839 191.021 148.2C191.021 144.561 188.064 141.6 184.431 141.6Z" style="fill: rgb(17, 154, 149);"/><path d="M158.991 87.12C162.624 87.12 165.581 84.1592 165.581 80.52C165.581 76.8808 162.624 73.92 158.991 73.92C155.357 73.92 152.4 76.8808 152.4 80.52C152.4 84.1592 155.357 87.12 158.991 87.12Z" style="fill: rgb(17, 154, 149);"/></g></svg>